<svg xmlns="http://www.w3.org/2000/svg" xmlns:xlink="http://www.w3.org/1999/xlink" width="26.0556640625" height="9.3056640625" viewBox="0 0 26.0556640625 9.3056640625" fill="none">
<path d="M0.420488 2.38281C0.580488 4.76281 0.000488281 6.57281 0.000488281 6.57281L0.970488 8.36281C2.26049 7.80281 2.23049 2.38281 2.23049 2.38281L0.420488 2.38281Z"   fill="#FFFFFF" >
</path>
<path d="M6.30031 2.38281C6.30031 2.38281 6.28031 7.80281 7.56031 8.36281L8.53031 6.57281C8.53031 6.57281 7.96031 4.76281 8.11031 2.38281L6.30031 2.38281Z"   fill="#FFFFFF" >
</path>
<path d="M2.23047 7.83195C2.23047 9.18195 3.36047 9.30195 3.36047 9.30195L3.94047 9.30195C5.10047 9.30195 5.15047 7.96195 5.15047 7.96195L5.15047 0.00195312L3.38047 0.00195312L3.38047 7.83195L2.23047 7.83195Z"   fill="#FFFFFF" >
</path>
<path d="M10.6506 4.02195L9.75057 5.87195C9.75057 5.87195 9.23057 6.91195 10.0706 6.95195L12.0306 6.95195L12.8106 5.52195L11.8306 5.52195C11.7706 5.52195 11.7206 5.49195 11.6906 5.44195C11.6606 5.39195 11.6606 5.32195 11.6806 5.27195L13.1506 2.38195L11.4506 2.38195L11.3506 2.59195L11.2306 2.59195C11.1806 2.59195 11.1206 2.56195 11.0906 2.51195C11.0606 2.46195 11.0606 2.40195 11.0906 2.35195L12.3106 0.00195312L10.6106 0.00195312L9.16057 2.95195C9.16057 2.95195 8.63057 3.99195 9.47057 4.02195L10.6506 4.02195Z"   fill="#FFFFFF" >
</path>
<path d="M9.37072 7.40234L8.49072 9.11234C8.49072 9.11234 8.63072 9.30234 8.93072 9.30234L11.1107 9.30234L12.0407 7.53234L9.73072 7.53234C9.73072 7.53234 9.51072 7.55234 9.37072 7.40234Z"   fill="#FFFFFF" >
</path>
<path d="M17.4415 2.38031L17.4415 0.570312L13.4315 0.570312L13.4315 2.38031L14.5615 2.38031L14.5615 7.58031L12.8815 7.58031L12.0415 9.30031L18.0115 9.30031L18.0115 7.58031L16.3215 7.58031L16.3215 2.38031L17.4415 2.38031Z"   fill="#FFFFFF" >
</path>
<path d="M22.1617 0.55C23.2617 0.55 24.1417 1.45 24.1417 2.55L24.1417 3.72L24.3517 3.72C25.2917 3.72 26.0617 4.49 26.0517 5.45L26.0517 7.8C26.0517 8.63 25.3917 9.3 24.5717 9.3L24.1217 9.3C23.3017 9.3 22.6317 8.63 22.6317 7.8L24.2917 7.8L24.2917 5.93C24.2917 5.7 24.1017 5.5 23.8617 5.5L21.4817 5.5L21.4817 9.3L19.7517 9.3L19.7517 5.5L18.0117 5.5L18.0117 3.72L19.7517 3.72L19.7517 2.34L18.6617 2.34L18.6617 0.55L19.7517 0.55L19.7517 0L21.4817 0L21.4817 0.55L22.1617 0.55ZM22.3714 2.6098L22.3714 3.7198L21.4814 3.7198L21.4814 2.3398L22.1014 2.3398C22.2514 2.3398 22.3714 2.4598 22.3714 2.6098Z" fill-rule="evenodd"  fill="#FFFFFF" >
</path>
<path d="M25.1774 0.564453C24.6974 0.564453 24.3174 0.954453 24.3174 1.42445L24.3174 2.29445L25.1774 2.29445C25.6474 2.29445 26.0374 1.90445 26.0374 1.42445C26.0374 0.954453 25.6474 0.564453 25.1774 0.564453Z"   fill="#FFFFFF" >
</path>
</svg>
